<svg width="21" height="11" viewBox="0 0 21 11" fill="none" xmlns="http://www.w3.org/2000/svg">
<path d="M20.7594 4.92715C20.7591 4.9269 20.7589 4.92662 20.7587 4.92637L16.4724 0.660747C16.1512 0.341195 15.6319 0.342384 15.3122 0.663536C14.9926 0.984647 14.9939 1.50403 15.315 1.82362L18.1928 4.68749H0.820312C0.367254 4.68749 0 5.05475 0 5.50781C0 5.96087 0.367254 6.32812 0.820312 6.32812H18.1928L15.315 9.19199C14.9939 9.51159 14.9927 10.031 15.3123 10.3521C15.6319 10.6733 16.1513 10.6744 16.4724 10.3549L20.7587 6.08924C20.7589 6.089 20.7591 6.08871 20.7594 6.08847C21.0807 5.76781 21.0797 5.24674 20.7594 4.92715Z" fill="#93C91C"/>
</svg>
