<svg width="24" height="24" viewBox="0 0 24 24" fill="none" xmlns="http://www.w3.org/2000/svg">
<path d="M0.339697 2.00243C-0.110303 1.55243 -0.110303 0.803478 0.339697 0.337744C0.805432 -0.112256 1.53865 -0.112256 2.00438 0.337744L11.9935 10.3437L21.9995 0.337744C22.4495 -0.112256 23.1984 -0.112256 23.6474 0.337744C24.1131 0.803478 24.1131 1.55348 23.6474 2.00243L13.6582 11.9926L23.6474 21.9986C24.1131 22.4486 24.1131 23.1975 23.6474 23.6633C23.1974 24.1133 22.4484 24.1133 21.9995 23.6633L11.9935 13.6573L2.00438 23.6633C1.53865 24.1133 0.805432 24.1133 0.339697 23.6633C-0.110303 23.1975 -0.110303 22.4475 0.339697 21.9986L10.3289 11.9926L0.339697 2.00243Z" fill="white"/>
</svg>
