<svg width="29" height="29" viewBox="0 0 29 29" fill="none" xmlns="http://www.w3.org/2000/svg">
<path d="M1.83593 1.95445C-0.369492 4.24523 0.081883 6.67868 0.081883 14.0714C0.081883 20.2106 -0.989255 26.3649 4.61668 27.8138C6.36722 28.264 21.8777 28.264 23.6259 27.8114C25.9599 27.2092 27.859 25.316 28.1186 22.0149C28.1548 21.5542 28.1548 6.59683 28.1174 6.12674C27.8414 2.61046 25.6769 0.583953 22.8249 0.173506C22.1712 0.0787877 22.0402 0.0507229 18.6865 0.0448761C6.79053 0.0507229 4.18285 -0.478999 1.83593 1.95445Z" fill="url(#paint0_linear)"/>
<path d="M14.112 3.71557C9.86603 3.71557 5.83406 3.33786 4.29401 7.29032C3.65787 8.92275 3.75025 11.0428 3.75025 14.0785C3.75025 16.7423 3.66489 19.2459 4.29401 20.8655C5.83055 24.8203 9.89527 24.4414 14.1097 24.4414C18.1755 24.4414 22.3677 24.8647 23.9265 20.8655C24.5638 19.2167 24.4702 17.1282 24.4702 14.0785C24.4702 10.0301 24.6936 7.41661 22.7302 5.45441C20.7423 3.46649 18.0539 3.71557 14.1073 3.71557H14.112ZM13.1835 5.58304C22.0403 5.56901 23.1676 4.58441 22.5455 18.2625C22.3244 23.1001 18.6409 22.5692 14.1132 22.5692C5.85745 22.5692 5.62007 22.333 5.62007 14.0738C5.62007 5.71869 6.27491 5.58772 13.1835 5.5807V5.58304ZM19.6431 7.30318C18.9567 7.30318 18.4001 7.8598 18.4001 8.54621C18.4001 9.23263 18.9567 9.78925 19.6431 9.78925C20.3295 9.78925 20.8861 9.23263 20.8861 8.54621C20.8861 7.8598 20.3295 7.30318 19.6431 7.30318ZM14.112 8.7567C11.1734 8.7567 8.79139 11.1399 8.79139 14.0785C8.79139 17.0171 11.1734 19.3991 14.112 19.3991C17.0506 19.3991 19.4314 17.0171 19.4314 14.0785C19.4314 11.1399 17.0506 8.7567 14.112 8.7567ZM14.112 10.6242C18.6784 10.6242 18.6842 17.5328 14.112 17.5328C9.54679 17.5328 9.53978 10.6242 14.112 10.6242Z" fill="white"/>
<defs>
<linearGradient id="paint0_linear" x1="1.88974" y1="26.3171" x2="27.973" y2="3.74238" gradientUnits="userSpaceOnUse">
<stop stop-color="#BEBEBE"/>
<stop offset="0.5" stop-color="#BEBEBE"/>
<stop offset="1" stop-color="#BEBEBE"/>
</linearGradient>
</defs>
</svg>
