<svg width="61" height="61" viewBox="0 0 61 61" fill="none" xmlns="http://www.w3.org/2000/svg">
<path d="M57.95 9.15H42.7V6.1C42.6965 3.29374 40.4229 1.02014 37.6167 1.01666H23.3833C20.5771 1.02014 18.3035 3.29374 18.3 6.1V9.15H3.05C1.36565 9.15 0 10.5156 0 12.2V46.7667C0 48.451 1.36565 49.8167 3.05 49.8167H39.65V55.9167C39.65 58.1625 41.4709 59.9833 43.7167 59.9833C45.9625 59.9833 47.7833 58.1625 47.7833 55.9167V49.8167H57.95C59.6343 49.8167 61 48.451 61 46.7667V12.2C61 10.5156 59.6343 9.15 57.95 9.15ZM20.3333 6.1C20.3333 4.41565 21.699 3.05 23.3833 3.05H37.6167C39.301 3.05 40.6667 4.41565 40.6667 6.1V9.15H20.3333V6.1ZM3.05 47.7833C2.48855 47.7833 2.03333 47.3281 2.03333 46.7667V41.7647C5.15035 42.218 7.59869 44.6663 8.05192 47.7833H3.05ZM40.6667 44.7333C40.1052 44.7333 39.65 45.1885 39.65 45.75V47.7833H10.1066C9.62656 43.5394 6.27722 40.1901 2.03333 39.7101V27.3299C2.99639 28.067 4.17538 28.4662 5.38813 28.4667H10.1667V34.5667C10.1667 34.8869 10.3176 35.1882 10.5732 35.3798L14.6399 38.4298C15.0013 38.7013 15.4987 38.7013 15.8601 38.4298L19.9268 35.3798C20.1824 35.1882 20.3333 34.8869 20.3333 34.5667V28.4667H29.535C29.5106 28.8042 29.4833 29.1398 29.4833 29.4833C29.4933 36.1641 34.1427 41.941 40.6667 43.3791V44.7333ZM12.2 34.0583V24.4H18.3V34.0583L15.25 36.3458L12.2 34.0583ZM45.75 55.9167C45.75 57.0396 44.8396 57.95 43.7167 57.95C42.5938 57.95 41.6833 57.0396 41.6833 55.9167V46.7667H45.75V55.9167ZM42.7 44.7333V43.665C43.0376 43.6894 43.3731 43.7167 43.7167 43.7167C44.0602 43.7167 44.3958 43.6894 44.7333 43.665V44.7333H42.7ZM43.7167 41.6833C36.9788 41.6833 31.5167 36.2212 31.5167 29.4833C31.5167 22.7454 36.9788 17.2833 43.7167 17.2833C50.4546 17.2833 55.9167 22.7454 55.9167 29.4833C55.9092 36.2183 50.4516 41.6759 43.7167 41.6833ZM58.9667 46.7667C58.9667 47.3281 58.5114 47.7833 57.95 47.7833H52.9481C53.4013 44.6663 55.8496 42.218 58.9667 41.7647V46.7667ZM58.9667 39.7101C54.7228 40.1901 51.3734 43.5394 50.8934 47.7833H47.7833V45.75C47.7833 45.1885 47.3281 44.7333 46.7667 44.7333V43.3791C53.2906 41.941 57.9401 36.1641 57.95 29.4833C57.95 28.9859 57.9232 28.4895 57.8706 27.9951C58.2608 27.8203 58.6286 27.6004 58.9667 27.3393V39.7101ZM58.9667 23.3833C58.9463 24.4288 58.3824 25.3884 57.4784 25.9136C55.8298 19.5435 50.0257 15.1368 43.4466 15.2604C36.8676 15.384 31.2332 20.0057 29.8249 26.4333H20.3333V23.3833C20.3333 22.8219 19.8781 22.3667 19.3167 22.3667H11.1833C10.6219 22.3667 10.1667 22.8219 10.1667 23.3833V26.4333H5.38813C3.62138 26.5128 2.12219 25.1501 2.03333 23.3833V12.2C2.03333 11.6385 2.48855 11.1833 3.05 11.1833H57.95C58.5114 11.1833 58.9667 11.6385 58.9667 12.2V23.3833Z" fill="black"/>
<path d="M17.2835 31.5167C17.2835 32.6396 16.373 33.55 15.2501 33.55C14.1272 33.55 13.2168 32.6396 13.2168 31.5167C13.2168 30.3938 14.1272 29.4833 15.2501 29.4833C16.373 29.4833 17.2835 30.3938 17.2835 31.5167Z" fill="black"/>
<path d="M33.5498 29.4833C33.5558 35.0959 38.104 39.6441 43.7165 39.65V37.6167C39.2244 37.6167 35.5831 33.9754 35.5831 29.4833C35.5831 24.9912 39.2244 21.35 43.7165 21.35V19.3167C38.104 19.3226 33.5558 23.8708 33.5498 29.4833Z" fill="black"/>
</svg>
