<svg width="61" height="61" viewBox="0 0 61 61" fill="none" xmlns="http://www.w3.org/2000/svg">
<path d="M18.0137 41.5872V42.7107C18.0137 43.0029 18.1564 43.2765 18.396 43.4436C19.4294 44.1646 20.5312 44.795 21.6707 45.3173C22.1191 45.5229 22.6496 45.326 22.8553 44.8773C23.0609 44.4286 22.864 43.8983 22.4153 43.6927C21.512 43.2787 20.6344 42.7902 19.8008 42.2379V41.5872C19.8008 35.6892 24.6002 30.8908 30.4996 30.8908C33.3574 30.8908 36.0446 32.0033 38.0659 34.0233C40.0859 36.0435 41.1984 38.7296 41.1984 41.5872V42.2381C38.0263 44.3422 34.3374 45.4521 30.4996 45.4521C29.0239 45.4521 27.5566 45.2863 26.1386 44.9591C25.6579 44.848 25.178 45.1481 25.067 45.629C24.9561 46.1098 25.256 46.5896 25.7368 46.7005C27.2865 47.0579 28.8889 47.2393 30.4996 47.2393C34.8603 47.2393 39.0457 45.9267 42.6033 43.4434C42.8428 43.2763 42.9855 43.0027 42.9855 42.7107V41.5872C42.9855 38.2524 41.6871 35.1173 39.3294 32.7595C37.9907 31.4216 36.4016 30.4253 34.6681 29.8133C36.6975 28.6864 38.2361 26.7504 38.8187 24.3678C38.9358 23.8884 38.6423 23.4048 38.163 23.2876C37.6833 23.1705 37.2 23.4639 37.0827 23.9433C36.34 26.9811 33.633 29.1025 30.4996 29.1025C26.7623 29.1025 23.7217 26.0625 23.7217 22.3258C23.7217 18.5884 26.7623 15.5479 30.4996 15.5479C33.5307 15.5479 36.2157 17.5847 37.0292 20.5011C37.1618 20.9765 37.6545 21.2544 38.13 21.1217C38.6053 20.9891 38.8832 20.4964 38.7506 20.021C37.7225 16.335 34.3295 13.7607 30.4996 13.7607C25.7769 13.7607 21.9346 17.603 21.9346 22.3258C21.9346 25.543 23.719 28.3502 26.3493 29.8135C21.4988 31.5278 18.0137 36.1579 18.0137 41.5872Z" fill="black"/>
<path d="M58.3193 27.8193H55.0767C54.4722 22.2394 51.9725 17.0108 47.9809 13.0191C43.9893 9.0274 38.7606 6.52783 33.1807 5.92331V2.68066C33.1807 1.20249 31.9782 0 30.5 0C29.0218 0 27.8193 1.20249 27.8193 2.68066V5.92296C20.6424 6.69511 14.2201 10.5269 10.1015 16.5292C9.82219 16.9362 9.92572 17.4923 10.3326 17.7716C10.4871 17.8776 10.6631 17.9284 10.8374 17.9284C11.122 17.9284 11.4018 17.7927 11.575 17.5404C15.3596 12.0249 21.2398 8.48567 27.8193 7.72198V9.8291C27.8193 11.3073 29.0218 12.5098 30.5 12.5098C31.9782 12.5098 33.1807 11.3073 33.1807 9.8291V7.72115C43.6419 8.94806 52.0519 17.3581 53.2789 27.8193H51.1709C49.6927 27.8193 48.4902 29.0218 48.4902 30.5C48.4902 31.9782 49.6927 33.1807 51.1709 33.1807H53.2789C52.0519 43.6419 43.6419 52.0519 33.1807 53.2789V51.1709C33.1807 49.6927 31.9782 48.4902 30.5 48.4902C29.0218 48.4902 27.8193 49.6927 27.8193 51.1709V53.2789C17.3581 52.0519 8.94806 43.6419 7.72115 33.1807H9.8291C11.3073 33.1807 12.5098 31.9782 12.5098 30.5C12.5098 29.0218 11.3073 27.8193 9.8291 27.8193H7.71984C7.98218 25.5619 8.57622 23.3688 9.49038 21.2876C9.68887 20.8358 9.48347 20.3086 9.03157 20.1101C8.57979 19.9115 8.0526 20.117 7.85411 20.5689C6.84022 22.877 6.19281 25.3124 5.92272 27.8193H2.68066C1.20249 27.8193 0 29.0218 0 30.5C0 31.9782 1.20249 33.1807 2.68066 33.1807H5.92331C6.52783 38.7606 9.02752 43.9892 13.0191 47.9809C17.0107 51.9726 22.2393 54.4722 27.8193 55.0767V58.3193C27.8193 59.7975 29.0218 61 30.5 61C31.9782 61 33.1807 59.7975 33.1807 58.3193V55.0767C38.7606 54.4722 43.9892 51.9725 47.9809 47.9809C51.9726 43.9893 54.4722 38.7607 55.0767 33.1807H58.3193C59.7975 33.1807 61 31.9782 61 30.5C61 29.0218 59.7975 27.8193 58.3193 27.8193ZM31.3936 9.8291C31.3936 10.3219 30.9928 10.7227 30.5 10.7227C30.0072 10.7227 29.6064 10.3219 29.6064 9.8291V2.68066C29.6064 2.1879 30.0072 1.78711 30.5 1.78711C30.9928 1.78711 31.3936 2.1879 31.3936 2.68066V9.8291ZM1.78711 30.5C1.78711 30.0072 2.1879 29.6064 2.68066 29.6064H6.73681H6.73836H6.73955H9.8291C10.3219 29.6064 10.7227 30.0072 10.7227 30.5C10.7227 30.9928 10.3219 31.3936 9.8291 31.3936H2.68066C2.1879 31.3936 1.78711 30.9928 1.78711 30.5ZM31.3936 58.3193C31.3936 58.8121 30.9928 59.2129 30.5 59.2129C30.0072 59.2129 29.6064 58.8121 29.6064 58.3193V51.1709C29.6064 50.6781 30.0072 50.2773 30.5 50.2773C30.9928 50.2773 31.3936 50.6781 31.3936 51.1709V58.3193ZM58.3193 31.3936H51.1709C50.6781 31.3936 50.2773 30.9928 50.2773 30.5C50.2773 30.0072 50.6781 29.6064 51.1709 29.6064H54.2605H54.2616H54.2632H58.3193C58.8121 29.6064 59.2129 30.0072 59.2129 30.5C59.2129 30.9928 58.8121 31.3936 58.3193 31.3936Z" fill="black"/>
</svg>
