<svg width="61" height="61" viewBox="0 0 61 61" fill="none" xmlns="http://www.w3.org/2000/svg">
<path d="M43.5184 0H7.46783C3.59854 0.00500702 0.463015 3.14053 0.458008 7.00982V42.9772C0.463015 46.8465 3.59854 49.9821 7.46783 49.9871H18.4833V47.9843H7.46783C4.70396 47.981 2.46407 45.7411 2.46082 42.9772V26.0365H8.89183C9.48529 25.9931 9.93129 25.4768 9.88785 24.8833C9.87946 24.7688 9.85293 24.6564 9.80912 24.5504C8.91912 22.5251 9.83941 20.1618 11.8647 19.2718C13.8901 18.3818 16.2534 19.3021 17.1434 21.3274C17.5947 22.3543 17.5947 23.5235 17.1434 24.5504C16.896 25.0679 17.1151 25.6879 17.6326 25.9352C17.7664 25.9992 17.9125 26.0337 18.0607 26.0366H24.4917V32.045C24.1609 31.9887 23.8259 31.9609 23.4903 31.9619C20.1719 31.9608 17.481 34.6499 17.4797 37.9682C17.4789 40.3589 18.8955 42.5226 21.0869 43.4781L21.888 41.6435C19.8595 40.761 18.9303 38.4012 19.8126 36.3726C20.4493 34.9089 21.8942 33.963 23.4903 33.9647C24.0422 33.9646 24.588 34.0799 25.0925 34.3032C25.5994 34.5244 26.1897 34.2928 26.4109 33.786C26.466 33.6598 26.4944 33.5236 26.4945 33.3859V26.0365H31.5866C31.5297 26.3672 31.5011 26.7023 31.5015 27.0379C31.5075 29.8911 33.514 32.3491 36.3083 32.9262L36.7088 30.9644C34.846 30.579 33.5085 28.9402 33.5043 27.0379C33.5042 26.486 33.6195 25.9402 33.8428 25.4356C34.064 24.9288 33.8324 24.3385 33.3256 24.1173C33.1994 24.0622 33.0632 24.0338 32.9255 24.0337H26.4945V18.9415C26.8252 18.9985 27.1603 19.027 27.4959 19.0267C30.8143 19.0267 33.5043 16.3366 33.5043 13.0182C33.5043 9.69985 30.8143 7.00982 27.4959 7.00982C27.1603 7.00945 26.8252 7.03799 26.4945 7.09494V2.00281H43.5184C46.2822 2.00606 48.5221 4.24595 48.5254 7.00982V24.0337H42.0944C41.5413 24.0339 41.0932 24.4826 41.0935 25.0356C41.0936 25.1733 41.122 25.3095 41.1771 25.4356C41.4004 25.9402 41.5157 26.486 41.5156 27.0379H43.5184C43.5187 26.7023 43.4902 26.3672 43.4332 26.0365H49.5268C50.0798 26.0365 50.5282 25.5881 50.5282 25.0351V7.00982C50.5232 3.14053 47.3877 0.00500702 43.5184 0ZM27.4959 9.01263C29.7081 9.01263 31.5015 10.806 31.5015 13.0182C31.5015 15.2305 29.7081 17.0239 27.4959 17.0239C26.944 17.024 26.3982 16.9087 25.8937 16.6854C25.3868 16.4642 24.7965 16.6958 24.5753 17.2026C24.5202 17.3288 24.4918 17.465 24.4917 17.6027V23.9506H19.4066C19.4568 23.647 19.4828 23.34 19.4847 23.0323C19.4847 23.0143 19.4847 22.9982 19.4847 22.9802C19.4847 22.9622 19.4847 22.9592 19.4847 22.9492C19.4847 19.6308 16.7947 16.9407 13.4763 16.9407C10.1579 16.9407 7.46783 19.6308 7.46783 22.9492C7.46783 22.9592 7.46783 22.9702 7.46783 22.9802C7.46783 22.9902 7.46783 23.0143 7.46783 23.0323C7.46971 23.34 7.49575 23.647 7.54594 23.9506H2.46082V7.00982C2.46407 4.24595 4.70396 2.00606 7.46783 2.00281H24.4917V8.43382C24.4919 8.98685 24.9406 9.43497 25.4936 9.43472C25.6313 9.4346 25.7675 9.40618 25.8937 9.35111C26.3982 9.12779 26.944 9.01251 27.4959 9.01263Z" fill="black"/>
<path d="M58.3999 43.0423L49.9811 37.2452L46.7476 28.6061C46.5547 28.0877 45.9781 27.824 45.4598 28.0169C45.4412 28.0238 45.4228 28.0313 45.4047 28.0393L38.8956 30.9183C38.4076 31.1337 38.1743 31.6939 38.3648 32.1921C38.473 32.4725 38.5741 32.6848 38.6813 32.9051C38.7884 33.1254 38.8876 33.3317 39.0087 33.6571C39.7861 35.7342 38.7395 38.0492 36.6664 38.8374C34.5944 39.6124 32.2864 38.561 31.5113 36.4889C31.3169 35.9691 31.2327 35.4147 31.2639 34.8608C31.2929 34.3086 30.8687 33.8373 30.3164 33.8082C30.178 33.801 30.0397 33.8225 29.91 33.8715L22.9522 36.4921C22.4356 36.6868 22.174 37.2628 22.3674 37.7799L24.8649 44.4523C24.5338 44.5126 24.2087 44.6024 23.8935 44.7207C20.7773 45.8819 19.1926 49.3495 20.3538 52.4658C21.5151 55.582 24.9827 57.1667 28.0989 56.0055C28.4198 55.8859 28.7298 55.7392 29.0257 55.5669L30.8162 60.3496C31.0103 60.8675 31.5873 61.13 32.1053 60.936C32.1059 60.9358 32.1064 60.9355 32.1071 60.9354L42.029 57.1971C42.6522 58.5368 43.7991 59.5608 45.2004 60.0291L45.8333 58.1264C45.0079 57.8483 44.3219 57.2621 43.9186 56.4902L46.9378 55.3536C47.9296 58.1431 50.5716 60.005 53.5321 60.0011V57.9983C50.7738 57.9814 48.542 55.7495 48.5251 52.9912C48.5251 52.7256 48.4194 52.471 48.2317 52.2833L44.7448 48.7964C44.2278 48.2749 44.1695 47.454 44.6076 46.8647C44.8627 46.5203 45.2565 46.3058 45.6841 46.2778C46.1123 46.2418 46.534 46.3995 46.8337 46.7074L53.8255 53.6992L55.2415 52.2833L53.1726 50.2144C53.6823 48.6901 53.6509 47.0367 53.0835 45.5328L51.2068 40.5208L57.2583 44.6876C58.0604 45.2506 58.5383 46.1691 58.5391 47.1491V60.0842H60.5419V47.1491C60.5405 45.5126 59.741 43.9799 58.3999 43.0423ZM51.2078 46.2348C51.4845 46.9701 51.5846 47.7599 51.5002 48.541L48.2497 45.2915C46.9079 43.9154 44.7048 43.8877 43.3288 45.2294C41.9527 46.5711 41.9251 48.7742 43.2667 50.1503C43.2871 50.1712 43.3078 50.1919 43.3288 50.2124L46.4962 53.3798L32.3444 58.7103L30.4357 53.6101C30.3169 53.2932 30.046 53.0578 29.7157 52.9842C29.6444 52.9685 29.5715 52.9603 29.4984 52.9602C29.2364 52.96 28.9848 53.0625 28.7974 53.2456C27.1894 54.7649 24.6541 54.6929 23.1349 53.0848C21.6156 51.4768 21.6876 48.9414 23.2957 47.4222C23.674 47.0648 24.1181 46.7847 24.6035 46.5972C24.9224 46.479 25.2553 46.4036 25.5939 46.3728C25.8022 46.3473 26.0123 46.3403 26.2218 46.3518C26.7741 46.3807 27.2454 45.9565 27.2743 45.4042C27.2815 45.2669 27.2604 45.1296 27.2122 45.0009L24.5965 38.0171L29.3652 36.2216C29.9911 39.4804 33.1403 41.6148 36.3991 40.9891C36.732 40.9251 37.059 40.8331 37.3764 40.7139C40.4817 39.5358 42.0512 36.07 40.8884 32.959C40.7962 32.7127 40.7131 32.5174 40.633 32.3432L45.2395 30.3033L51.2078 46.2348Z" fill="black"/>
</svg>
