<svg width="16" height="20" viewBox="0 0 16 20" fill="none" xmlns="http://www.w3.org/2000/svg">
<path d="M7.99963 0C3.93998 0 0.636841 3.30314 0.636841 7.3632C0.636841 8.42222 0.853598 9.43334 1.28077 10.3687C3.12167 14.3971 6.65119 18.6501 7.68933 19.8575C7.76711 19.9478 7.8805 19.9998 7.99983 19.9998C8.11916 19.9998 8.23255 19.9478 8.31033 19.8575C9.34807 18.6503 12.8776 14.3975 14.7191 10.3687C15.1465 9.43334 15.363 8.42222 15.363 7.3632C15.3626 3.30314 12.0595 0 7.99963 0ZM7.99963 11.1877C5.8908 11.1877 4.17496 9.47182 4.17496 7.36299C4.17496 5.25396 5.8908 3.53812 7.99963 3.53812C10.1085 3.53812 11.8243 5.25396 11.8243 7.36299C11.8245 9.47182 10.1087 11.1877 7.99963 11.1877Z" fill="#FF8500"/>
</svg>
