<svg width="28" height="28" viewBox="0 0 28 28" fill="none" xmlns="http://www.w3.org/2000/svg">
<path d="M14 28C21.732 28 28 21.732 28 14C28 6.26801 21.732 0 14 0C6.26801 0 0 6.26801 0 14C0 21.732 6.26801 28 14 28Z" fill="#BEBEBE"/>
<path d="M6.40623 13.6964L19.9046 8.49192C20.5311 8.26559 21.0782 8.64475 20.8752 9.59209L20.8764 9.59092L18.5781 20.4188C18.4077 21.1864 17.9516 21.3731 17.3134 21.0114L13.8134 18.4319L12.1252 20.0583C11.9386 20.2449 11.7811 20.4024 11.4194 20.4024L11.6679 16.8406L18.1546 10.9804C18.4369 10.7319 18.0916 10.5919 17.7194 10.8393L9.70323 15.8863L6.24756 14.8083C5.4974 14.5703 5.48106 14.0581 6.40623 13.6964Z" fill="white"/>
</svg>
