<svg width="31" height="16" viewBox="0 0 31 16" fill="none" xmlns="http://www.w3.org/2000/svg">
<path d="M30.6448 6.79908C30.6445 6.79872 30.6442 6.79829 30.6437 6.79793L24.3163 0.501058C23.8423 0.0293379 23.0756 0.0310934 22.6038 0.505175C22.132 0.979196 22.1338 1.7459 22.6078 2.21768L26.856 6.4453H1.21094C0.542136 6.4453 0 6.98744 0 7.65624C0 8.32504 0.542136 8.86718 1.21094 8.86718H26.856L22.6079 13.0948C22.1339 13.5666 22.1321 14.3333 22.6038 14.8073C23.0757 15.2815 23.8424 15.2831 24.3164 14.8114L30.6438 8.51455C30.6442 8.51419 30.6445 8.51377 30.6449 8.5134C31.1191 8.04005 31.1176 7.27086 30.6448 6.79908Z" fill="#FF8500"/>
</svg>
