<svg width="254" height="44" viewBox="0 0 254 44" fill="none" xmlns="http://www.w3.org/2000/svg">
<path d="M73.6876 18.5228C73.6876 19.7386 73.3927 20.8784 72.8031 21.9423C72.2353 23.0061 71.329 23.8637 70.0842 24.515C68.8612 25.1664 67.3106 25.492 65.4325 25.492H61.5998V34.2199H57.0137V11.4884H65.4325C67.2015 11.4884 68.7083 11.7924 69.9531 12.4003C71.1979 13.0082 72.1261 13.8441 72.7376 14.9079C73.3709 15.9717 73.6876 17.1767 73.6876 18.5228ZM65.236 21.812C66.5026 21.812 67.4417 21.5298 68.0532 20.9653C68.6646 20.3791 68.9704 19.5649 68.9704 18.5228C68.9704 16.3083 67.7256 15.201 65.236 15.201H61.5998V21.812H65.236Z" fill="white"/>
<path d="M81.5298 18.9787C82.1195 18.0234 82.8838 17.2744 83.8229 16.7316C84.7838 16.1888 85.8757 15.9175 87.0987 15.9175V20.7047H85.8866C84.4453 20.7047 83.3533 21.0413 82.6108 21.7143C81.8902 22.3874 81.5298 23.5597 81.5298 25.2315V34.2199H76.9437V16.178H81.5298V18.9787Z" fill="white"/>
<path d="M98.2462 34.513C96.4991 34.513 94.9267 34.133 93.529 33.3731C92.1313 32.5915 91.0285 31.4951 90.2204 30.0839C89.4342 28.6727 89.0411 27.0444 89.0411 25.1989C89.0411 23.3535 89.4452 21.7252 90.2532 20.3139C91.0831 18.9027 92.2078 17.8172 93.6273 17.0573C95.0468 16.2757 96.6301 15.8849 98.3772 15.8849C100.124 15.8849 101.708 16.2757 103.127 17.0573C104.547 17.8172 105.66 18.9027 106.468 20.3139C107.298 21.7252 107.713 23.3535 107.713 25.1989C107.713 27.0444 107.287 28.6727 106.436 30.0839C105.606 31.4951 104.47 32.5915 103.029 33.3731C101.609 34.133 100.015 34.513 98.2462 34.513ZM98.2462 30.5399C99.0761 30.5399 99.8513 30.3445 100.572 29.9537C101.315 29.5411 101.904 28.9332 102.341 28.1299C102.778 27.3266 102.996 26.3496 102.996 25.1989C102.996 23.4838 102.537 22.1702 101.62 21.2584C100.725 20.3248 99.622 19.858 98.3117 19.858C97.0014 19.858 95.8985 20.3248 95.0031 21.2584C94.1296 22.1702 93.6928 23.4838 93.6928 25.1989C93.6928 26.9141 94.1187 28.2385 94.9704 29.1721C95.8439 30.0839 96.9359 30.5399 98.2462 30.5399Z" fill="white"/>
<path d="M119.398 19.9232H116.22V34.2199H111.569V19.9232H109.505V16.178H111.569V15.2661C111.569 13.0516 112.202 11.4233 113.469 10.3811C114.735 9.33901 116.646 8.85052 119.201 8.91565V12.7585C118.088 12.7368 117.312 12.9213 116.876 13.3121C116.439 13.7029 116.22 14.4085 116.22 15.429V16.178H119.398V19.9232Z" fill="white"/>
<path d="M130.265 34.4478C128.67 34.4478 127.229 34.1765 125.941 33.6337C124.674 33.0909 123.669 32.3093 122.927 31.2889C122.184 30.2685 121.802 29.0635 121.78 27.674H126.694C126.76 28.6076 127.087 29.3457 127.677 29.8885C128.288 30.4313 129.118 30.7027 130.166 30.7027C131.237 30.7027 132.077 30.453 132.689 29.9537C133.3 29.4326 133.606 28.7595 133.606 27.9345C133.606 27.2615 133.399 26.7079 132.984 26.2736C132.569 25.8394 132.045 25.5029 131.411 25.2641C130.8 25.0035 129.948 24.7213 128.856 24.4173C127.371 23.9831 126.159 23.5597 125.22 23.1472C124.303 22.713 123.506 22.0725 122.829 21.2258C122.173 20.3574 121.846 19.2067 121.846 17.7738C121.846 16.4277 122.184 15.2553 122.861 14.2566C123.538 13.2579 124.488 12.498 125.711 11.9769C126.934 11.4341 128.332 11.1627 129.904 11.1627C132.263 11.1627 134.174 11.7381 135.637 12.8888C137.122 14.0177 137.941 15.6027 138.094 17.6435H133.049C133.005 16.8619 132.667 16.2214 132.034 15.7221C131.422 15.201 130.603 14.9405 129.577 14.9405C128.681 14.9405 127.961 15.1684 127.415 15.6244C126.891 16.0803 126.629 16.7425 126.629 17.6109C126.629 18.2188 126.825 18.729 127.218 19.1416C127.633 19.5324 128.135 19.858 128.725 20.1185C129.337 20.3574 130.188 20.6396 131.28 20.9653C132.765 21.3995 133.977 21.8337 134.916 22.2679C135.855 22.7022 136.663 23.3535 137.34 24.2219C138.017 25.0904 138.356 26.2302 138.356 27.6414C138.356 28.8572 138.039 29.9862 137.406 31.0283C136.773 32.0705 135.845 32.9064 134.622 33.536C133.399 34.1439 131.946 34.4478 130.265 34.4478Z" fill="white"/>
<path d="M150.39 34.513C148.643 34.513 147.071 34.133 145.673 33.3731C144.276 32.5915 143.173 31.4951 142.365 30.0839C141.579 28.6727 141.185 27.0444 141.185 25.1989C141.185 23.3535 141.589 21.7252 142.397 20.3139C143.227 18.9027 144.352 17.8172 145.772 17.0573C147.191 16.2757 148.774 15.8849 150.522 15.8849C152.269 15.8849 153.852 16.2757 155.271 17.0573C156.691 17.8172 157.805 18.9027 158.613 20.3139C159.443 21.7252 159.858 23.3535 159.858 25.1989C159.858 27.0444 159.432 28.6727 158.58 30.0839C157.75 31.4951 156.615 32.5915 155.173 33.3731C153.754 34.133 152.159 34.513 150.39 34.513ZM150.39 30.5399C151.22 30.5399 151.996 30.3445 152.716 29.9537C153.459 29.5411 154.048 28.9332 154.485 28.1299C154.922 27.3266 155.14 26.3496 155.14 25.1989C155.14 23.4838 154.682 22.1702 153.765 21.2584C152.869 20.3248 151.766 19.858 150.456 19.858C149.146 19.858 148.043 20.3248 147.147 21.2584C146.274 22.1702 145.837 23.4838 145.837 25.1989C145.837 26.9141 146.263 28.2385 147.115 29.1721C147.988 30.0839 149.08 30.5399 150.39 30.5399Z" fill="white"/>
<path d="M167.808 10.1206V34.2199H163.222V10.1206H167.808Z" fill="white"/>
<path d="M189.471 16.178V34.2199H184.853V31.9402C184.263 32.7218 183.488 33.3406 182.527 33.7965C181.588 34.2307 180.561 34.4478 179.447 34.4478C178.028 34.4478 176.772 34.1547 175.68 33.5685C174.588 32.9606 173.726 32.0813 173.092 30.9306C172.481 29.7583 172.175 28.3687 172.175 26.7621V16.178H176.761V26.1108C176.761 27.5437 177.122 28.651 177.842 29.4326C178.563 30.1925 179.546 30.5724 180.791 30.5724C182.057 30.5724 183.051 30.1925 183.772 29.4326C184.492 28.651 184.853 27.5437 184.853 26.1108V16.178H189.471Z" fill="white"/>
<path d="M199.336 19.9232V28.651C199.336 29.2589 199.478 29.704 199.762 29.9862C200.068 30.2468 200.57 30.377 201.269 30.377H203.398V34.2199H200.515C196.65 34.2199 194.717 32.3527 194.717 28.6184V19.9232H192.555V16.178H194.717V11.7164H199.336V16.178H203.398V19.9232H199.336Z" fill="white"/>
<path d="M209.022 14.0286C208.214 14.0286 207.537 13.7789 206.991 13.2796C206.467 12.7585 206.205 12.118 206.205 11.3581C206.205 10.5983 206.467 9.96863 206.991 9.46928C207.537 8.94822 208.214 8.68768 209.022 8.68768C209.83 8.68768 210.497 8.94822 211.021 9.46928C211.567 9.96863 211.84 10.5983 211.84 11.3581C211.84 12.118 211.567 12.7585 211.021 13.2796C210.497 13.7789 209.83 14.0286 209.022 14.0286ZM211.283 16.178V34.2199H206.697V16.178H211.283Z" fill="white"/>
<path d="M223.872 34.513C222.125 34.513 220.553 34.133 219.155 33.3731C217.757 32.5915 216.655 31.4951 215.847 30.0839C215.06 28.6727 214.667 27.0444 214.667 25.1989C214.667 23.3535 215.071 21.7252 215.879 20.3139C216.709 18.9027 217.834 17.8172 219.253 17.0573C220.673 16.2757 222.256 15.8849 224.003 15.8849C225.75 15.8849 227.334 16.2757 228.753 17.0573C230.173 17.8172 231.287 18.9027 232.095 20.3139C232.924 21.7252 233.339 23.3535 233.339 25.1989C233.339 27.0444 232.914 28.6727 232.062 30.0839C231.232 31.4951 230.096 32.5915 228.655 33.3731C227.236 34.133 225.641 34.513 223.872 34.513ZM223.872 30.5399C224.702 30.5399 225.477 30.3445 226.198 29.9537C226.941 29.5411 227.53 28.9332 227.967 28.1299C228.404 27.3266 228.622 26.3496 228.622 25.1989C228.622 23.4838 228.164 22.1702 227.246 21.2584C226.351 20.3248 225.248 19.858 223.938 19.858C222.628 19.858 221.525 20.3248 220.629 21.2584C219.756 22.1702 219.319 23.4838 219.319 25.1989C219.319 26.9141 219.745 28.2385 220.597 29.1721C221.47 30.0839 222.562 30.5399 223.872 30.5399Z" fill="white"/>
<path d="M246.76 15.9175C248.922 15.9175 250.669 16.6014 252.002 17.9692C253.334 19.3152 254 21.2041 254 23.6357V34.2199H249.414V24.2545C249.414 22.8216 249.053 21.7252 248.333 20.9653C247.612 20.1837 246.629 19.7929 245.384 19.7929C244.118 19.7929 243.113 20.1837 242.371 20.9653C241.65 21.7252 241.29 22.8216 241.29 24.2545V34.2199H236.704V16.178H241.29V18.4251C241.901 17.6435 242.676 17.0356 243.616 16.6014C244.576 16.1454 245.625 15.9175 246.76 15.9175Z" fill="white"/>
<path d="M16.0092 8.7129C18.3917 8.7129 20.3231 6.79281 20.3231 4.42425C20.3231 2.0557 18.3917 0.135605 16.0092 0.135605C13.6267 0.135605 11.6953 2.0557 11.6953 4.42425C11.6953 6.79281 13.6267 8.7129 16.0092 8.7129Z" fill="white"/>
<path d="M16.0092 20.3399C18.3917 20.3399 20.3231 18.4198 20.3231 16.0513C20.3231 13.6827 18.3917 11.7626 16.0092 11.7626C13.6267 11.7626 11.6953 13.6827 11.6953 16.0513C11.6953 18.4198 13.6267 20.3399 16.0092 20.3399Z" fill="white"/>
<path d="M16.0092 31.9669C18.3917 31.9669 20.3231 30.0468 20.3231 27.6783C20.3231 25.3097 18.3917 23.3896 16.0092 23.3896C13.6267 23.3896 11.6953 25.3097 11.6953 27.6783C11.6953 30.0468 13.6267 31.9669 16.0092 31.9669Z" fill="white"/>
<path d="M4.31388 20.3399C6.69637 20.3399 8.62775 18.4198 8.62775 16.0513C8.62775 13.6827 6.69637 11.7626 4.31388 11.7626C1.93139 11.7626 0 13.6827 0 16.0513C0 18.4198 1.93139 20.3399 4.31388 20.3399Z" fill="white"/>
<path d="M4.31388 31.9669C6.69637 31.9669 8.62775 30.0468 8.62775 27.6783C8.62775 25.3097 6.69637 23.3896 4.31388 23.3896C1.93139 23.3896 0 25.3097 0 27.6783C0 30.0468 1.93139 31.9669 4.31388 31.9669Z" fill="white"/>
<path d="M27.6088 20.3399C29.9913 20.3399 31.9227 18.4198 31.9227 16.0513C31.9227 13.6827 29.9913 11.7626 27.6088 11.7626C25.2263 11.7626 23.2949 13.6827 23.2949 16.0513C23.2949 18.4198 25.2263 20.3399 27.6088 20.3399Z" fill="white"/>
<path d="M27.6088 31.9669C29.9913 31.9669 31.9227 30.0468 31.9227 27.6783C31.9227 25.3097 29.9913 23.3896 27.6088 23.3896C25.2263 23.3896 23.2949 25.3097 23.2949 27.6783C23.2949 30.0468 25.2263 31.9669 27.6088 31.9669Z" fill="white"/>
<path d="M27.6088 43.4986C29.9913 43.4986 31.9227 41.5785 31.9227 39.21C31.9227 36.8414 29.9913 34.9213 27.6088 34.9213C25.2263 34.9213 23.2949 36.8414 23.2949 39.21C23.2949 41.5785 25.2263 43.4986 27.6088 43.4986Z" fill="white"/>
<path d="M38.8246 20.3399C41.2071 20.3399 43.1385 18.4198 43.1385 16.0513C43.1385 13.6827 41.2071 11.7626 38.8246 11.7626C36.4421 11.7626 34.5107 13.6827 34.5107 16.0513C34.5107 18.4198 36.4421 20.3399 38.8246 20.3399Z" fill="white"/>
<path d="M38.8246 31.9669C41.2071 31.9669 43.1385 30.0468 43.1385 27.6783C43.1385 25.3097 41.2071 23.3896 38.8246 23.3896C36.4421 23.3896 34.5107 25.3097 34.5107 27.6783C34.5107 30.0468 36.4421 31.9669 38.8246 31.9669Z" fill="white"/>
</svg>
