<svg width="255" height="44" viewBox="0 0 255 44" fill="none" xmlns="http://www.w3.org/2000/svg">
<path d="M73.6287 18.1721C73.6287 19.3946 73.3322 20.5408 72.7391 21.6105C72.1679 22.6803 71.2563 23.5426 70.0042 24.1976C68.774 24.8525 67.2144 25.18 65.3252 25.18H61.47V33.9563H56.8569V11.0986H65.3252C67.1045 11.0986 68.6203 11.4043 69.8724 12.0156C71.1245 12.6268 72.0581 13.4674 72.6732 14.5371C73.3102 15.6068 73.6287 16.8185 73.6287 18.1721ZM65.1275 21.4795C66.4016 21.4795 67.3462 21.1957 67.9613 20.6281C68.5763 20.0387 68.8839 19.22 68.8839 18.1721C68.8839 15.9452 67.6318 14.8318 65.1275 14.8318H61.47V21.4795H65.1275Z" fill="#1D1D1B"/>
<path d="M81.517 18.6305C82.1102 17.6699 82.879 16.9167 83.8236 16.371C84.7901 15.8252 85.8885 15.5523 87.1186 15.5523V20.3661H85.8995C84.4496 20.3661 83.3513 20.7045 82.6044 21.3813C81.8795 22.0581 81.517 23.237 81.517 24.918V33.9563H76.904V15.8143H81.517V18.6305Z" fill="#1D1D1B"/>
<path d="M98.3316 34.251C96.5742 34.251 94.9926 33.869 93.5867 33.1049C92.1808 32.3189 91.0715 31.2164 90.2587 29.7974C89.4679 28.3783 89.0725 26.741 89.0725 24.8853C89.0725 23.0296 89.4789 21.3922 90.2917 19.9732C91.1264 18.5541 92.2577 17.4625 93.6856 16.6984C95.1134 15.9125 96.706 15.5195 98.4634 15.5195C100.221 15.5195 101.813 15.9125 103.241 16.6984C104.669 17.4625 105.789 18.5541 106.602 19.9732C107.437 21.3922 107.854 23.0296 107.854 24.8853C107.854 26.741 107.426 28.3783 106.569 29.7974C105.734 31.2164 104.592 32.3189 103.142 33.1049C101.715 33.869 100.111 34.251 98.3316 34.251ZM98.3316 30.2559C99.1663 30.2559 99.9462 30.0594 100.671 29.6664C101.418 29.2516 102.011 28.6403 102.45 27.8325C102.89 27.0248 103.109 26.0424 103.109 24.8853C103.109 23.1606 102.648 21.8398 101.725 20.9228C100.825 19.9841 99.7155 19.5147 98.3975 19.5147C97.0795 19.5147 95.9701 19.9841 95.0695 20.9228C94.1908 21.8398 93.7515 23.1606 93.7515 24.8853C93.7515 26.61 94.1798 27.9417 95.0365 28.8805C95.9152 29.7974 97.0136 30.2559 98.3316 30.2559Z" fill="#1D1D1B"/>
<path d="M119.608 19.5802H116.411V33.9563H111.732V19.5802H109.657V15.8143H111.732V14.8973C111.732 12.6705 112.369 11.0331 113.644 9.98521C114.918 8.9373 116.84 8.44609 119.41 8.51158V12.3758C118.29 12.3539 117.51 12.5395 117.07 12.9325C116.631 13.3254 116.411 14.035 116.411 15.0611V15.8143H119.608V19.5802Z" fill="#1D1D1B"/>
<path d="M130.538 34.1855C128.935 34.1855 127.485 33.9126 126.189 33.3669C124.915 32.8211 123.904 32.0351 123.157 31.009C122.41 29.983 122.026 28.7713 122.004 27.3741H126.947C127.012 28.3128 127.342 29.0551 127.935 29.6009C128.55 30.1467 129.385 30.4196 130.439 30.4196C131.516 30.4196 132.361 30.1685 132.976 29.6664C133.592 29.1424 133.899 28.4657 133.899 27.6361C133.899 26.9593 133.69 26.4026 133.273 25.9659C132.856 25.5293 132.328 25.1909 131.691 24.9508C131.076 24.6888 130.22 24.405 129.121 24.0993C127.628 23.6627 126.408 23.237 125.464 22.8222C124.541 22.3856 123.739 21.7415 123.058 20.8901C122.399 20.0168 122.07 18.8598 122.07 17.4189C122.07 16.0653 122.41 14.8864 123.091 13.8822C123.772 12.8779 124.728 12.1138 125.958 11.5898C127.188 11.044 128.594 10.7712 130.176 10.7712C132.548 10.7712 134.47 11.3497 135.942 12.5068C137.436 13.642 138.26 15.2357 138.413 17.2879H133.339C133.295 16.5019 132.955 15.8579 132.317 15.3558C131.702 14.8318 130.879 14.5698 129.846 14.5698C128.946 14.5698 128.221 14.7991 127.671 15.2575C127.144 15.716 126.881 16.3819 126.881 17.2551C126.881 17.8664 127.078 18.3795 127.474 18.7943C127.891 19.1872 128.396 19.5147 128.989 19.7767C129.605 20.0168 130.461 20.3006 131.56 20.6281C133.053 21.0647 134.273 21.5014 135.217 21.938C136.162 22.3746 136.974 23.0296 137.655 23.9029C138.336 24.7761 138.677 25.9223 138.677 27.3413C138.677 28.5639 138.358 29.6991 137.721 30.7471C137.084 31.795 136.151 32.6355 134.921 33.2686C133.69 33.8799 132.23 34.1855 130.538 34.1855Z" fill="#1D1D1B"/>
<path d="M150.782 34.251C149.025 34.251 147.443 33.869 146.037 33.1049C144.631 32.3189 143.522 31.2164 142.709 29.7974C141.918 28.3783 141.523 26.741 141.523 24.8853C141.523 23.0296 141.929 21.3922 142.742 19.9732C143.577 18.5541 144.708 17.4625 146.136 16.6984C147.564 15.9125 149.157 15.5195 150.914 15.5195C152.671 15.5195 154.264 15.9125 155.692 16.6984C157.12 17.4625 158.24 18.5541 159.053 19.9732C159.887 21.3922 160.305 23.0296 160.305 24.8853C160.305 26.741 159.876 28.3783 159.02 29.7974C158.185 31.2164 157.043 32.3189 155.593 33.1049C154.165 33.869 152.561 34.251 150.782 34.251ZM150.782 30.2559C151.617 30.2559 152.397 30.0594 153.122 29.6664C153.868 29.2516 154.462 28.6403 154.901 27.8325C155.34 27.0248 155.56 26.0424 155.56 24.8853C155.56 23.1606 155.099 21.8398 154.176 20.9228C153.275 19.9841 152.166 19.5147 150.848 19.5147C149.53 19.5147 148.421 19.9841 147.52 20.9228C146.641 21.8398 146.202 23.1606 146.202 24.8853C146.202 26.61 146.63 27.9417 147.487 28.8805C148.366 29.7974 149.464 30.2559 150.782 30.2559Z" fill="#1D1D1B"/>
<path d="M168.302 9.72323V33.9563H163.689V9.72323H168.302Z" fill="#1D1D1B"/>
<path d="M190.093 15.8143V33.9563H185.447V31.664C184.853 32.4499 184.074 33.0721 183.107 33.5306C182.162 33.9672 181.13 34.1855 180.01 34.1855C178.582 34.1855 177.319 33.8908 176.22 33.3014C175.122 32.6901 174.254 31.8059 173.617 30.6488C173.002 29.4699 172.695 28.0727 172.695 26.4572V15.8143H177.308V25.8022C177.308 27.2431 177.67 28.3565 178.395 29.1424C179.12 29.9065 180.109 30.2886 181.361 30.2886C182.635 30.2886 183.634 29.9065 184.359 29.1424C185.084 28.3565 185.447 27.2431 185.447 25.8022V15.8143H190.093Z" fill="#1D1D1B"/>
<path d="M200.015 19.5802V28.3565C200.015 28.9678 200.158 29.4153 200.443 29.6991C200.751 29.9611 201.256 30.0921 201.959 30.0921H204.101V33.9563H201.201C197.313 33.9563 195.369 32.0788 195.369 28.3238V19.5802H193.194V15.8143H195.369V11.3279H200.015V15.8143H204.101V19.5802H200.015Z" fill="#1D1D1B"/>
<path d="M209.758 13.6529C208.946 13.6529 208.265 13.4019 207.715 12.8997C207.188 12.3758 206.925 11.7317 206.925 10.9676C206.925 10.2035 207.188 9.57041 207.715 9.06829C208.265 8.54433 208.946 8.28235 209.758 8.28235C210.571 8.28235 211.241 8.54433 211.768 9.06829C212.318 9.57041 212.592 10.2035 212.592 10.9676C212.592 11.7317 212.318 12.3758 211.768 12.8997C211.241 13.4019 210.571 13.6529 209.758 13.6529ZM212.032 15.8143V33.9563H207.419V15.8143H212.032Z" fill="#1D1D1B"/>
<path d="M224.696 34.251C222.938 34.251 221.357 33.869 219.951 33.1049C218.545 32.3189 217.435 31.2164 216.623 29.7974C215.832 28.3783 215.436 26.741 215.436 24.8853C215.436 23.0296 215.843 21.3922 216.656 19.9732C217.49 18.5541 218.622 17.4625 220.049 16.6984C221.477 15.9125 223.07 15.5195 224.827 15.5195C226.585 15.5195 228.177 15.9125 229.605 16.6984C231.033 17.4625 232.153 18.5541 232.966 19.9732C233.801 21.3922 234.218 23.0296 234.218 24.8853C234.218 26.741 233.79 28.3783 232.933 29.7974C232.098 31.2164 230.956 32.3189 229.506 33.1049C228.078 33.869 226.475 34.251 224.696 34.251ZM224.696 30.2559C225.53 30.2559 226.31 30.0594 227.035 29.6664C227.782 29.2516 228.375 28.6403 228.814 27.8325C229.254 27.0248 229.473 26.0424 229.473 24.8853C229.473 23.1606 229.012 21.8398 228.089 20.9228C227.189 19.9841 226.079 19.5147 224.761 19.5147C223.443 19.5147 222.334 19.9841 221.433 20.9228C220.555 21.8398 220.115 23.1606 220.115 24.8853C220.115 26.61 220.544 27.9417 221.4 28.8805C222.279 29.7974 223.377 30.2559 224.696 30.2559Z" fill="#1D1D1B"/>
<path d="M247.718 15.5523C249.893 15.5523 251.65 16.24 252.99 17.6154C254.33 18.9689 255 20.8683 255 23.3134V33.9563H250.387V23.9356C250.387 22.4947 250.024 21.3922 249.3 20.6281C248.575 19.8422 247.586 19.4492 246.334 19.4492C245.06 19.4492 244.049 19.8422 243.303 20.6281C242.578 21.3922 242.215 22.4947 242.215 23.9356V33.9563H237.602V15.8143H242.215V18.0738C242.83 17.2879 243.61 16.6766 244.555 16.24C245.521 15.7815 246.576 15.5523 247.718 15.5523Z" fill="#1D1D1B"/>
<path d="M16.0068 8.74902C18.4033 8.74902 20.3461 6.81827 20.3461 4.43656C20.3461 2.05485 18.4033 0.1241 16.0068 0.1241C13.6104 0.1241 11.6676 2.05485 11.6676 4.43656C11.6676 6.81827 13.6104 8.74902 16.0068 8.74902Z" fill="#FF8500"/>
<path d="M16.0068 20.4406C18.4033 20.4406 20.3461 18.5098 20.3461 16.1281C20.3461 13.7464 18.4033 11.8157 16.0068 11.8157C13.6104 11.8157 11.6676 13.7464 11.6676 16.1281C11.6676 18.5098 13.6104 20.4406 16.0068 20.4406Z" fill="#FF8500"/>
<path d="M16.0068 32.0363C18.4033 32.0363 20.3461 30.1056 20.3461 27.7239C20.3461 25.3421 18.4033 23.4114 16.0068 23.4114C13.6104 23.4114 11.6676 25.3421 11.6676 27.7239C11.6676 30.1056 13.6104 32.0363 16.0068 32.0363Z" fill="#FF8500"/>
<path d="M4.33921 20.4406C6.73569 20.4406 8.67842 18.5098 8.67842 16.1281C8.67842 13.7464 6.73569 11.8157 4.33921 11.8157C1.94273 11.8157 0 13.7464 0 16.1281C0 18.5098 1.94273 20.4406 4.33921 20.4406Z" fill="#93C91C"/>
<path d="M4.33921 32.0363C6.73569 32.0363 8.67842 30.1056 8.67842 27.7239C8.67842 25.3421 6.73569 23.4114 4.33921 23.4114C1.94273 23.4114 0 25.3421 0 27.7239C0 30.1056 1.94273 32.0363 4.33921 32.0363Z" fill="#93C91C"/>
<path d="M27.771 20.4406C30.1675 20.4406 32.1102 18.5098 32.1102 16.1281C32.1102 13.7464 30.1675 11.8157 27.771 11.8157C25.3745 11.8157 23.4318 13.7464 23.4318 16.1281C23.4318 18.5098 25.3745 20.4406 27.771 20.4406Z" fill="#93C91C"/>
<path d="M27.771 32.0363C30.1675 32.0363 32.1102 30.1056 32.1102 27.7239C32.1102 25.3421 30.1675 23.4114 27.771 23.4114C25.3745 23.4114 23.4318 25.3421 23.4318 27.7239C23.4318 30.1056 25.3745 32.0363 27.771 32.0363Z" fill="#93C91C"/>
<path d="M27.771 43.7279C30.1675 43.7279 32.1102 41.7971 32.1102 39.4154C32.1102 37.0337 30.1675 35.103 27.771 35.103C25.3745 35.103 23.4318 37.0337 23.4318 39.4154C23.4318 41.7971 25.3745 43.7279 27.771 43.7279Z" fill="#93C91C"/>
<path d="M39.0529 20.4406C41.4494 20.4406 43.3921 18.5098 43.3921 16.1281C43.3921 13.7464 41.4494 11.8157 39.0529 11.8157C36.6564 11.8157 34.7137 13.7464 34.7137 16.1281C34.7137 18.5098 36.6564 20.4406 39.0529 20.4406Z" fill="#93C91C"/>
<path d="M39.0529 32.0363C41.4494 32.0363 43.3921 30.1056 43.3921 27.7239C43.3921 25.3421 41.4494 23.4114 39.0529 23.4114C36.6564 23.4114 34.7137 25.3421 34.7137 27.7239C34.7137 30.1056 36.6564 32.0363 39.0529 32.0363Z" fill="#93C91C"/>
</svg>
